<svg width="113" height="20" viewBox="0 0 113 20" fill="none" xmlns="http://www.w3.org/2000/svg">
<g id="YourBanK">
<path d="M15.7704 0.833252L9.62517 11.6841V18.8323H6.72887V11.6841L0.583679 0.833252H3.88294L8.18961 8.80427L12.4711 0.833252H15.7704Z" fill="white"/>
<path d="M20.9251 19.1666C19.0781 19.1666 17.5083 18.5152 16.2154 17.2124C14.9226 15.9096 14.2762 14.3068 14.2762 12.4041C14.2762 10.5013 14.9226 8.89855 16.2154 7.59576C17.5083 6.29297 19.0781 5.64158 20.9251 5.64158C22.7888 5.64158 24.3586 6.29297 25.6347 7.59576C26.9275 8.89855 27.574 10.5013 27.574 12.4041C27.574 14.3068 26.9275 15.9096 25.6347 17.2124C24.3586 18.5152 22.7888 19.1666 20.9251 19.1666ZM18.1295 15.3096C18.8851 16.081 19.8169 16.4667 20.9251 16.4667C22.0332 16.4667 22.9651 16.081 23.7206 15.3096C24.4762 14.5383 24.854 13.5697 24.854 12.4041C24.854 11.2384 24.4762 10.2699 23.7206 9.49852C22.9651 8.72713 22.0332 8.34143 20.9251 8.34143C19.8169 8.34143 18.8851 8.72713 18.1295 9.49852C17.3739 10.2699 16.9962 11.2384 16.9962 12.4041C16.9962 13.5697 17.3739 14.5383 18.1295 15.3096Z" fill="white"/>
<path d="M38.5209 5.97584H41.2409V18.8323H38.5209V17.1867C37.6981 18.5066 36.3969 19.1666 34.6172 19.1666C33.1732 19.1666 32.0063 18.6952 31.1164 17.7524C30.2265 16.8096 29.7816 15.5153 29.7816 13.8697V5.97584H32.5016V13.5869C32.5016 14.5468 32.7534 15.2839 33.2572 15.7982C33.7609 16.3124 34.4493 16.5696 35.3223 16.5696C36.2794 16.5696 37.0517 16.2696 37.6394 15.6696C38.227 15.0525 38.5209 14.1183 38.5209 12.8669V5.97584Z" fill="white"/>
<path d="M47.1415 8.13573C47.8299 6.54153 49.1227 5.74443 51.02 5.74443V8.75284C49.979 8.68427 49.0723 8.9414 48.3 9.52423C47.5276 10.0899 47.1415 11.0327 47.1415 12.3527V18.8323H44.4215V5.97584H47.1415V8.13573Z" fill="white"/>
<path d="M63.5823 9.49852C64.3546 9.90992 64.9591 10.4756 65.3956 11.1956C65.8322 11.9155 66.0504 12.7469 66.0504 13.6897C66.0504 15.1639 65.5383 16.3896 64.5141 17.3667C63.49 18.3438 62.2391 18.8323 60.7616 18.8323H53.206V0.833252H60.2075C61.6514 0.833252 62.8687 1.31323 63.8593 2.27318C64.8667 3.21599 65.3704 4.39878 65.3704 5.82157C65.3704 7.38148 64.7744 8.60713 63.5823 9.49852ZM60.2075 3.61025H56.1023V8.34143H60.2075C60.8455 8.34143 61.3828 8.11859 61.8193 7.6729C62.2559 7.21006 62.4741 6.64438 62.4741 5.97584C62.4741 5.30731 62.2559 4.75019 61.8193 4.3045C61.3828 3.84167 60.8455 3.61025 60.2075 3.61025ZM60.7616 16.0553C61.4332 16.0553 61.9956 15.8153 62.449 15.3354C62.9191 14.8382 63.1541 14.2383 63.1541 13.5355C63.1541 12.8326 62.9191 12.2412 62.449 11.7613C61.9956 11.2641 61.4332 11.0156 60.7616 11.0156H56.1023V16.0553H60.7616Z" fill="white"/>
<path d="M78.4978 5.97584H81.2178V18.8323H78.4978V16.981C77.4736 18.4381 76.0045 19.1666 74.0904 19.1666C72.361 19.1666 70.8835 18.5152 69.6578 17.2124C68.4322 15.8925 67.8193 14.2897 67.8193 12.4041C67.8193 10.5013 68.4322 8.89855 69.6578 7.59576C70.8835 6.29297 72.361 5.64158 74.0904 5.64158C76.0045 5.64158 77.4736 6.36154 78.4978 7.80146V5.97584ZM71.6726 15.3611C72.4282 16.1325 73.3769 16.5182 74.5186 16.5182C75.6603 16.5182 76.6089 16.1325 77.3645 15.3611C78.1201 14.5725 78.4978 13.5869 78.4978 12.4041C78.4978 11.2213 78.1201 10.2442 77.3645 9.4728C76.6089 8.68427 75.6603 8.29001 74.5186 8.29001C73.3769 8.29001 72.4282 8.68427 71.6726 9.4728C70.9171 10.2442 70.5393 11.2213 70.5393 12.4041C70.5393 13.5869 70.9171 14.5725 71.6726 15.3611Z" fill="white"/>
<path d="M91.0119 5.64158C92.4559 5.64158 93.6228 6.11298 94.5127 7.05579C95.4025 7.99859 95.8475 9.29281 95.8475 10.9384V18.8323H93.1275V11.2213C93.1275 10.2613 92.8756 9.52423 92.3719 9.00997C91.8682 8.49571 91.1798 8.23858 90.3068 8.23858C89.3497 8.23858 88.5774 8.54714 87.9897 9.16425C87.4021 9.76422 87.1082 10.6899 87.1082 11.9412V18.8323H84.3882V5.97584H87.1082V7.62147C87.9309 6.30154 89.2322 5.64158 91.0119 5.64158Z" fill="white"/>
<path d="M112.25 18.8323H108.8L101.849 10.2699V18.8323H98.9526V0.833252H101.849V8.90712L108.548 0.833252H111.998L104.871 9.60137L112.25 18.8323Z" fill="white"/>
</g>
</svg>
